<svg width="34" height="31" viewBox="0 0 34 31" fill="none" xmlns="http://www.w3.org/2000/svg">
<path d="M5 13.9065C5 7.01463 10.9798 1.64646 17.8318 2.38722L18.247 2.4321C21.5593 2.7902 24.5179 4.66558 26.2552 7.50844L28.1645 10.6328C28.6915 11.4952 29.5879 12.0653 30.5925 12.1769L31.3564 12.2618C32.5768 12.3974 33.5 13.4289 33.5 14.6568V16.0822C33.5 17.0257 32.5757 17.6919 31.6806 17.3935C31.0095 17.1698 30.2778 17.4889 29.9851 18.1329L27.3867 23.8493C26.2107 26.4364 23.8006 28.2487 20.9887 28.6602L18.931 28.9613C11.5871 30.036 5 24.3427 5 16.9206V13.9065Z" fill="#F7F8FC"/>
<path d="M29.3425 16.1763L34 16.1763C33.9283 16.5053 33.8209 16.8343 33.6417 17.1268L26.7271 29.355C26.1538 30.3603 25.0969 31 23.9505 31H10.1212C8.97471 31 7.91781 30.3603 7.34457 29.355L0.429926 17.1268C-0.143309 16.1215 -0.143309 14.8785 0.429926 13.8732L7.34457 1.64505C7.91781 0.639741 8.97471 0 10.1212 0L23.9505 0C25.0969 0 26.1538 0.639741 26.7271 1.64505L33.6417 13.8732C33.8209 14.1657 33.9283 14.4947 34 14.8237H29.3425C22.9115 14.8237 17.6986 9.50472 17.6986 2.94281H16.373C16.373 6.21462 15.0653 9.19399 12.9694 11.3508C10.8556 13.4894 7.95364 14.8237 4.7471 14.8237V16.1763C7.95364 16.1763 10.8556 17.5106 12.9694 19.6492C15.0653 21.806 16.373 24.7854 16.373 28.0572H17.6986C17.6986 24.7854 19.0063 21.806 21.1022 19.6492C23.216 17.5106 26.1359 16.1763 29.3425 16.1763Z" fill="#1D1D1F"/>
</svg>
